<svg xmlns="http://www.w3.org/2000/svg" width="186.063" height="31.431" viewBox="0 0 186.063 31.431">
    <g data-name="Group 1224">
        <path data-name="Path 579" d="m344.471 436.111-10.212 5.369 1.95-11.372-8.262-8.054 11.418-1.659 5.106-10.346 5.106 10.346 11.423 1.66-8.262 8.054 1.95 11.372z" transform="translate(-327.947 -410.049)" style="fill:#f9d422"/>
        <path data-name="Path 580" d="m344.471 436.111-10.212 5.369 1.95-11.372-8.262-8.054 11.418-1.659 5.106-10.346 5.106 10.346 11.423 1.66-8.262 8.054 1.95 11.372z" transform="translate(-289.693 -410.049)" style="fill:#f9d422"/>
        <path data-name="Path 581" d="m344.471 436.111-10.212 5.369 1.95-11.372-8.262-8.054 11.418-1.659 5.106-10.346 5.106 10.346 11.423 1.66-8.262 8.054 1.95 11.372z" transform="translate(-251.44 -410.049)" style="fill:#f9d422"/>
        <path data-name="Path 582" d="m344.471 436.111-10.212 5.369 1.95-11.372-8.262-8.054 11.418-1.659 5.106-10.346 5.106 10.346 11.423 1.66-8.262 8.054 1.95 11.372z" transform="translate(-213.186 -410.049)" style="fill:#f9d422"/>
        <path data-name="Path 583" d="m344.471 436.111-10.212 5.369 1.95-11.372-8.262-8.054 11.418-1.659 5.106-10.346 5.106 10.346 11.423 1.66-8.262 8.054 1.95 11.372z" transform="translate(-174.932 -410.049)" style="fill:#f9d422"/>
    </g>
</svg>
