<svg xmlns="http://www.w3.org/2000/svg" width="16.59" height="16.59" viewBox="0 0 16.59 16.59">
  <g id="calendar_3_" data-name="calendar (3)" transform="translate(-2 -2)">
    <path id="Path_7926" data-name="Path 7926" d="M2,10v9.125a.784.784,0,0,0,.83.83H17.761a.784.784,0,0,0,.83-.83V10Zm4.148,7.466H4.489V15.807H6.148Zm3.318,0H7.807V15.807H9.466Zm0-3.318H7.807V12.489H9.466Zm3.318,3.318H11.125V15.807h1.659Zm0-3.318H11.125V12.489h1.659ZM16.1,17.466H14.443V15.807H16.1Zm0-3.318H14.443V12.489H16.1Z" transform="translate(0 -1.364)" fill="#c4975e"/>
    <path id="Path_7927" data-name="Path 7927" d="M17.761,2H16.1V3.659a.83.83,0,0,1-1.659,0V2h-8.3V3.659a.784.784,0,0,1-.83.83.784.784,0,0,1-.83-.83V2H2.83A.784.784,0,0,0,2,2.83V6.977H18.59V2.83A.784.784,0,0,0,17.761,2Z" fill="#c4975e"/>
  </g>
</svg>
