<svg xmlns="http://www.w3.org/2000/svg" width="48.5" height="44.125" viewBox="0 0 48.5 44.125">
    <defs>
        <filter id="2osd7j9oga" x="0" y="0" width="48.5" height="44.125" filterUnits="userSpaceOnUse">
            <feOffset dy="2"/>
            <feGaussianBlur stdDeviation=".5" result="blur"/>
            <feFlood flood-color="#fff1b9"/>
            <feComposite operator="in" in2="blur"/>
            <feComposite in="SourceGraphic"/>
        </filter>
    </defs>
    <g style="filter:url(#2osd7j9oga)">
        <path data-name="Path 1" d="M115.625 134.25H140a1.626 1.626 0 0 0 1.577-1.231l4.875-19.5a1.627 1.627 0 0 0-1.577-2.019h-34.149l-1.674-5.359A1.626 1.626 0 0 0 107.5 105h-4.875a1.625 1.625 0 0 0 0 3.25h3.68l7.2 23.048a5.619 5.619 0 0 0-4.383 5.389 5.712 5.712 0 0 0 5.137 5.572 4.846 4.846 0 0 0 9.19.116h7.1a4.847 4.847 0 0 0 9.153 0h1.923a1.625 1.625 0 0 0 0-3.25H139.7a4.847 4.847 0 0 0-9.153 0h-7.1a4.855 4.855 0 0 0-9.1-.168 2.4 2.4 0 0 1-1.976-2.269c.004-1.214 1.007-2.438 3.254-2.438zM120.5 131h-3.68l-1.016-3.25h4.7zm0-6.5h-5.711l-1.016-3.25h6.727zm14.625-9.75h7.668l-.828 3.318a1.631 1.631 0 0 0-.34-.068h-6.5zm0 6.5h6.043l-.812 3.25h-5.23zm0 6.5h4.418l-.813 3.25h-3.605zm-11.375-13h8.125V118h-8.125zm0 6.5h8.125v3.25h-8.125zm0 6.5h8.125V131h-8.125zM112.757 118l-1.016-3.25h8.759V118zm22.368 20.963a1.787 1.787 0 1 1-1.787 1.787 1.788 1.788 0 0 1 1.787-1.787zm-16.25 0a1.787 1.787 0 1 1-1.787 1.787 1.788 1.788 0 0 1 1.787-1.787z" transform="translate(-99.5 -105)" style="fill:#0e4444"/>
    </g>
</svg>
