<svg xmlns="http://www.w3.org/2000/svg" width="54.563" height="67.101" viewBox="0 0 54.563 67.101">
    <g data-name="Group 37">
        <g data-name="Group 20">
            <path data-name="Path 7" d="M2447.317 2431.938a1.122 1.122 0 0 1-.813-.348l-5.757-6.039a1.124 1.124 0 1 1 1.627-1.552l5.757 6.039a1.124 1.124 0 0 1-.814 1.9z" transform="translate(-2422.081 -2392.822)" style="fill:#fff"/>
        </g>
        <g data-name="Group 21">
            <path data-name="Path 8" d="M2500.8 2455.006a1.124 1.124 0 0 1-.45-2.155l5.422-2.365a1.124 1.124 0 1 1 .9 2.061l-5.421 2.365a1.121 1.121 0 0 1-.451.094z" transform="translate(-2470.637 -2414.742)" style="fill:#fff"/>
        </g>
        <g data-name="Group 22">
            <path data-name="Path 9" d="M2470.416 2461.566a4.28 4.28 0 1 1 4.28-4.28 4.285 4.285 0 0 1-4.28 4.28zm0-6.313a2.032 2.032 0 1 0 2.032 2.032 2.034 2.034 0 0 0-2.032-2.032z" transform="translate(-2443.147 -2416.882)" style="fill:#fff"/>
        </g>
        <g data-name="Group 27">
            <g data-name="Group 23">
                <path data-name="Path 10" d="M2484.83 2360.766a1.124 1.124 0 0 1-1.125-1.125v-2.726a1.124 1.124 0 1 1 2.248 0v2.726a1.124 1.124 0 0 1-1.123 1.125z" transform="translate(-2457.547 -2337.201)" style="fill:#fff"/>
            </g>
            <g data-name="Group 24">
                <path data-name="Path 11" d="M2584.118 2469.719h-2.726a1.124 1.124 0 0 1 0-2.248h2.726a1.124 1.124 0 1 1 0 2.248z" transform="translate(-2536.695 -2428.739)" style="fill:#fff"/>
            </g>
            <g data-name="Group 25">
                <path data-name="Path 12" d="M2484.83 2569.008a1.124 1.124 0 0 1-1.125-1.124v-2.727a1.124 1.124 0 1 1 2.248 0v2.727a1.124 1.124 0 0 1-1.123 1.124z" transform="translate(-2457.547 -2507.887)" style="fill:#fff"/>
            </g>
            <g data-name="Group 26">
                <path data-name="Path 13" d="M2375.875 2469.719h-2.726a1.124 1.124 0 0 1 0-2.248h2.726a1.124 1.124 0 0 1 0 2.248z" transform="translate(-2366.009 -2428.739)" style="fill:#fff"/>
            </g>
        </g>
        <g data-name="Group 32">
            <g data-name="Group 28">
                <path data-name="Path 14" d="M2553.11 2392.678a1.124 1.124 0 0 1-.795-1.919l1.928-1.928a1.124 1.124 0 0 1 1.589 1.589l-1.928 1.928a1.121 1.121 0 0 1-.794.33z" transform="translate(-2513.513 -2364.012)" style="fill:#fff"/>
            </g>
            <g data-name="Group 29">
                <path data-name="Path 15" d="M2555.037 2539.928a1.12 1.12 0 0 1-.794-.329l-1.928-1.928a1.124 1.124 0 0 1 1.589-1.589l1.928 1.928a1.124 1.124 0 0 1-.794 1.918z" transform="translate(-2513.513 -2484.705)" style="fill:#fff"/>
            </g>
            <g data-name="Group 30">
                <path data-name="Path 16" d="M2405.86 2539.928a1.124 1.124 0 0 1-.795-1.918l1.928-1.928a1.124 1.124 0 0 1 1.59 1.589l-1.928 1.928a1.121 1.121 0 0 1-.795.329z" transform="translate(-2392.821 -2484.705)" style="fill:#fff"/>
            </g>
            <g data-name="Group 31">
                <path data-name="Path 17" d="M2407.787 2392.678a1.123 1.123 0 0 1-.795-.33l-1.928-1.928a1.124 1.124 0 0 1 1.59-1.589l1.928 1.928a1.124 1.124 0 0 1-.795 1.919z" transform="translate(-2392.821 -2364.012)" style="fill:#fff"/>
            </g>
        </g>
        <g data-name="Group 33">
            <path data-name="Path 18" d="M2365.95 2376.8a27.281 27.281 0 1 1 27.281-27.281 27.312 27.312 0 0 1-27.281 27.281zm0-52.315a25.033 25.033 0 1 0 25.033 25.033 25.062 25.062 0 0 0-25.033-25.037z" transform="translate(-2338.668 -2309.695)" style="fill:#fff"/>
        </g>
        <g data-name="Group 34">
            <path data-name="Path 19" d="M2473.6 2298.9a1.124 1.124 0 0 1-1.124-1.124v-4.742h-4.05v4.742a1.124 1.124 0 0 1-2.249 0v-5.866a1.125 1.125 0 0 1 1.124-1.124h6.3a1.124 1.124 0 0 1 1.125 1.124v5.866a1.124 1.124 0 0 1-1.126 1.124z" transform="translate(-2443.18 -2283.918)" style="fill:#fff"/>
        </g>
        <g data-name="Group 35">
            <path data-name="Path 20" d="M2578.684 2339.837a1.124 1.124 0 0 1-.795-1.919l3.593-3.593-2.864-2.864-3.593 3.594a1.124 1.124 0 0 1-1.59-1.59l4.388-4.388a1.124 1.124 0 0 1 1.59 0l4.453 4.453a1.124 1.124 0 0 1 0 1.59l-4.388 4.388a1.12 1.12 0 0 1-.794.329z" transform="translate(-2530.825 -2315.034)" style="fill:#fff"/>
        </g>
        <g data-name="Group 36">
            <path data-name="Path 21" d="M2463.206 2261.828h-12.2a1.124 1.124 0 0 1-1.124-1.124v-6.866a1.124 1.124 0 0 1 1.124-1.124h12.2a1.124 1.124 0 0 1 1.124 1.124v6.866a1.124 1.124 0 0 1-1.124 1.124zm-11.076-2.248h9.952v-4.618h-9.952z" transform="translate(-2429.824 -2252.714)" style="fill:#fff"/>
        </g>
    </g>
</svg>
