<svg xmlns="http://www.w3.org/2000/svg" width="76.764" height="101.98" viewBox="0 0 76.764 101.98">
    <g data-name="Group 625">
        <g data-name="Group 619">
            <path data-name="Path 585" d="M91.686 128.072a12.113 12.113 0 0 1-10.836-6.337A12.43 12.43 0 0 1 63.319 109a12.432 12.432 0 0 1-6.7-20.611 12.43 12.43 0 0 1 6.7-20.608A12.43 12.43 0 0 1 80.85 55.04a12.43 12.43 0 0 1 21.669 0 12.43 12.43 0 0 1 17.531 12.738 12.43 12.43 0 0 1 6.7 20.608 12.432 12.432 0 0 1-6.7 20.614 12.43 12.43 0 0 1-17.531 12.738 12.112 12.112 0 0 1-10.833 6.334zm-8.621-13.152.9 3.036a8.054 8.054 0 0 0 15.451 0l.894-3.036 2.509 1.93a8.054 8.054 0 0 0 12.5-9.081l-1.063-2.984 3.167.089a8.055 8.055 0 0 0 4.774-14.7l-2.609-1.789 2.609-1.787a8.055 8.055 0 0 0-4.774-14.7l-3.167.089 1.063-2.982a8.054 8.054 0 0 0-12.5-9.083l-2.509 1.93-.894-3.036a8.054 8.054 0 0 0-15.451 0l-.9 3.036-2.509-1.93a8.054 8.054 0 0 0-12.5 9.083l1.063 2.982-3.169-.087a8.056 8.056 0 0 0-4.774 14.7l2.609 1.787-2.609 1.789a8.056 8.056 0 0 0 4.774 14.7l3.167-.089-1.063 2.984a8.054 8.054 0 0 0 12.5 9.081z" transform="translate(-53.303 -48.703)" style="fill:#30aeac"/>
        </g>
        <g data-name="Group 620">
            <path data-name="Path 586" d="m97.7 109.426-17.349-9.915L63 109.426V84h4.338v17.951l13.013-7.436 13.013 7.436V84H97.7z" transform="translate(-41.968 -7.446)" style="fill:#30aeac"/>
        </g>
        <g data-name="Group 621">
            <path data-name="Path 587" d="M83.857 103.715a23.857 23.857 0 1 1 23.857-23.857 23.886 23.886 0 0 1-23.857 23.857zm0-43.377a19.52 19.52 0 1 0 19.52 19.52 19.544 19.544 0 0 0-19.52-19.52z" transform="translate(-45.475 -40.174)" style="fill:#30aeac"/>
        </g>
        <g data-name="Group 622">
            <path data-name="Path 588" d="M76.675 79.351h-4.337V66.338H68V62h8.675z" transform="translate(-36.124 -33.161)" style="fill:#30aeac"/>
        </g>
        <g data-name="Group 623">
            <path data-name="Rectangle 11" style="fill:#30aeac" d="M0 0h13.013v4.338H0z" transform="translate(31.876 44.021)"/>
        </g>
    </g>
</svg>
