<svg xmlns="http://www.w3.org/2000/svg" width="17.646" height="17.656" viewBox="0 0 17.646 17.656">
  <g id="restaurant" transform="translate(-0.153)">
    <g id="Group_6184" data-name="Group 6184" transform="translate(1.135)">
      <g id="Group_6183" data-name="Group 6183">
        <path id="Path_7928" data-name="Path 7928" d="M44.845,15.012,37.922,8.089,29.833,0H29.2l-.129.328a5.8,5.8,0,0,0-.421,2.56A3.616,3.616,0,0,0,29.665,5.2l6.315,6.315.833-.833,5.838,6.528a1.552,1.552,0,0,0,2.2-2.2Z" transform="translate(-28.636)" fill="#c4975e"/>
      </g>
    </g>
    <g id="Group_6186" data-name="Group 6186" transform="translate(0.153 10.05)">
      <g id="Group_6185" data-name="Group 6185" transform="translate(0)">
        <path id="Path_7929" data-name="Path 7929" d="M5.552,291.442.607,296.387a1.552,1.552,0,0,0,2.2,2.2l4.946-4.946Z" transform="translate(-0.153 -291.442)" fill="#c4975e"/>
      </g>
    </g>
    <g id="Group_6188" data-name="Group 6188" transform="translate(9.609 0.012)">
      <g id="Group_6187" data-name="Group 6187">
        <path id="Path_7930" data-name="Path 7930" d="M281.8,3.288l-2.805,2.805-.732-.732,2.805-2.805-.732-.732L277.53,4.63,276.8,3.9,279.6,1.093l-.732-.732L275.213,4.02a2.583,2.583,0,0,0-.753,1.674,1.492,1.492,0,0,1-.106.467l2.377,2.377a1.489,1.489,0,0,1,.467-.106,2.583,2.583,0,0,0,1.674-.753l3.659-3.659Z" transform="translate(-274.354 -0.361)" fill="#c4975e"/>
      </g>
    </g>
  </g>
</svg>
